# xmcd
#
# Track frame offsets:
#       150
#       12087
#       27300
#       45000
#       65737
#       86962
#       110950
#       126542
#       144795
#       164565
#       178440
#       198782
#
# Disc length: 2802 seconds
#
# Revision: 0
# Processed by: cddbd v1.5.1PL0 Copyright (c) Steve Scherf et al.
# Submitted via: WaveLab 4.01
#
DISCID=ac0af00c
DTITLE=Jamestown Ferry - If I needed you
DYEAR=1997
DGENRE=American Folk
TTITLE0=Walking after midnight
TTITLE1=What I didn´t do
TTITLE2=Rosewood casket
TTITLE3=Fairfax County
TTITLE4=Guardian angel
TTITLE5=It´s all over now, baby blue
TTITLE6=Coat of many colours
TTITLE7=Little Rock
TTITLE8=If I needed you
TTITLE9=Me and whiskey
TTITLE10=Applejack
TTITLE11=Somebody must have loved you right last night
EXTD=
EXTT0=
EXTT1=
EXTT2=
EXTT3=
EXTT4=
EXTT5=
EXTT6=
EXTT7=
EXTT8=
EXTT9=
EXTT10=
EXTT11=
PLAYORDER=
